<svg width="16" height="17" viewBox="0 0 16 17" fill="none" xmlns="http://www.w3.org/2000/svg">
<path fill-rule="evenodd" clip-rule="evenodd" d="M8.00055 2.66634C6.71188 2.66634 5.66721 3.71101 5.66721 4.99967C5.66721 6.28834 6.71188 7.33301 8.00055 7.33301C9.28921 7.33301 10.3339 6.28834 10.3339 4.99967C10.3339 3.71101 9.28921 2.66634 8.00055 2.66634ZM4.33388 4.99967C4.33388 2.97463 5.9755 1.33301 8.00055 1.33301C10.0256 1.33301 11.6672 2.97463 11.6672 4.99967C11.6672 7.02472 10.0256 8.66634 8.00055 8.66634C5.9755 8.66634 4.33388 7.02472 4.33388 4.99967Z" fill="white"/>
<path fill-rule="evenodd" clip-rule="evenodd" d="M4.06992 10.6663C3.60771 10.6663 3.24643 10.8914 3.09979 11.2148C2.89681 11.6623 2.71301 12.1951 2.66964 12.7005C2.65025 12.9264 2.74444 13.0928 2.87423 13.1735C3.56033 13.5997 5.15014 14.333 8.00055 14.333C10.851 14.333 12.4408 13.5997 13.1269 13.1735C13.2567 13.0928 13.3508 12.9264 13.3315 12.7005C13.2881 12.1951 13.1043 11.6623 12.9013 11.2148C12.7547 10.8914 12.3934 10.6663 11.9312 10.6663H4.06992ZM1.8855 10.664C2.2908 9.77039 3.19582 9.33301 4.06992 9.33301H11.9312C12.8053 9.33301 13.7103 9.77039 14.1156 10.664C14.3484 11.1773 14.5982 11.8674 14.6599 12.5864C14.7161 13.2413 14.4439 13.9249 13.8304 14.3061C12.9281 14.8666 11.0936 15.6663 8.00055 15.6663C4.90748 15.6663 3.07301 14.8666 2.17066 14.3061C1.55715 13.9249 1.28499 13.2413 1.34119 12.5864C1.40291 11.8673 1.65271 11.1773 1.8855 10.664Z" fill="white"/>
</svg>
